<svg width="32" height="32" viewBox="0 0 32 32" fill="none" xmlns="http://www.w3.org/2000/svg">
<path d="M16.0021 0C7.1645 0 0 7.20701 0 16.0971C0 24.1327 5.85601 30.796 13.5096 32V20.745H9.4211V16.0971H13.5096L13.5139 12.5497C13.5139 8.51463 15.8906 6.27916 19.5458 6.27916C21.2962 6.27916 23.1152 6.62009 23.1152 6.62009V10.5559H21.1074C19.1211 10.5559 18.4861 11.8074 18.4861 13.0805L18.4904 16.1014H22.935L22.2228 20.745H18.4904V31.9957C26.144 30.7916 32 24.1327 32 16.0928C32 7.20701 24.8355 0 16.0021 0Z" fill="#1877F2"/>
</svg>
