<svg width="32" height="32" viewBox="0 0 32 32" fill="none" xmlns="http://www.w3.org/2000/svg">
<path d="M31.1569 5.51318C30.7467 4.46201 30.2013 3.56786 29.3111 2.68244C28.4209 1.79266 27.5307 1.24744 26.479 0.837445C25.4623 0.440531 24.2972 0.170106 22.5953 0.0959572C20.8891 0.0174468 20.3436 0 15.9974 0C11.6511 0 11.1057 0.0174468 9.39945 0.0959572C7.6976 0.174468 6.53248 0.444893 5.51574 0.837445C4.46408 1.24744 3.56952 1.79266 2.68369 2.68244C1.79349 3.57223 1.24803 4.46201 0.837839 5.51318C0.440741 6.52945 0.170185 7.69403 0.0960023 9.39509C0.0174554 11.1005 0 11.6457 0 15.99C0 20.3342 0.0174554 20.8794 0.0960023 22.5848C0.174549 24.2859 0.445105 25.4505 0.837839 26.4668C1.24803 27.5179 1.79349 28.4121 2.68369 29.2975C3.57389 30.1873 4.46408 30.7325 5.51574 31.1425C6.53248 31.5394 7.6976 31.8098 9.39945 31.884C11.1057 31.9625 11.6511 31.9799 15.9974 31.9799C20.3436 31.9799 20.8891 31.9625 22.5953 31.884C24.2972 31.8055 25.4623 31.535 26.479 31.1425C27.5307 30.7325 28.4253 30.1873 29.3111 29.2975C30.2013 28.4077 30.7467 27.5179 31.1569 26.4668C31.554 25.4505 31.8246 24.2859 31.8988 22.5848C31.9773 20.8794 31.9948 20.3342 31.9948 15.99C31.9948 11.6457 31.9773 11.1005 31.8988 9.39509C31.8246 7.69403 31.554 6.52945 31.1569 5.51318ZM29.0231 22.4496C28.9533 24.0068 28.6914 24.8573 28.4733 25.4199C28.1809 26.1658 27.8362 26.6979 27.2776 27.2606C26.719 27.8189 26.1867 28.1678 25.4361 28.4557C24.8732 28.6738 24.0266 28.9355 22.4644 29.0053C20.7757 29.0838 20.2738 29.0969 16.0018 29.0969C11.7297 29.0969 11.2235 29.0794 9.53909 29.0053C7.98124 28.9355 7.13031 28.6738 6.5674 28.4557C5.8212 28.1635 5.28883 27.8189 4.72591 27.2606C4.16735 26.7023 3.81826 26.1702 3.53025 25.4199C3.31207 24.8573 3.05024 24.0111 2.98042 22.4496C2.90187 20.7617 2.88879 20.2557 2.88879 15.99C2.88879 11.7242 2.90624 11.2139 2.98042 9.5303C3.05024 7.97318 3.31207 7.12264 3.53025 6.55999C3.82262 5.81414 4.16735 5.28201 4.72591 4.71935C5.28446 4.16106 5.81684 3.81212 6.5674 3.52425C7.13031 3.30616 7.97687 3.04446 9.53909 2.97467C11.2278 2.89616 11.734 2.88308 16.0018 2.88308C20.2738 2.88308 20.78 2.90053 22.4644 2.97467C24.0223 3.04446 24.8732 3.30616 25.4361 3.52425C26.1823 3.81212 26.7147 4.16106 27.2776 4.71935C27.8362 5.27765 28.1852 5.80978 28.4733 6.55999C28.6914 7.12264 28.9533 7.96881 29.0231 9.5303C29.1016 11.2183 29.1147 11.7242 29.1147 15.99C29.1147 20.2557 29.0973 20.7617 29.0231 22.4496ZM16.0018 7.7769C11.4635 7.7769 7.78488 11.4538 7.78488 15.99C7.78488 20.5261 11.4635 24.203 16.0018 24.203C20.54 24.203 24.2186 20.5261 24.2186 15.99C24.2186 11.4538 20.5357 7.7769 16.0018 7.7769ZM16.0018 21.32C13.0562 21.32 10.6693 18.9341 10.6693 15.99C10.6693 13.0458 13.0562 10.66 16.0018 10.66C18.9473 10.66 21.3342 13.0458 21.3342 15.99C21.3342 18.9341 18.9429 21.32 16.0018 21.32ZM24.5416 5.53063C23.4812 5.53063 22.6215 6.38988 22.6215 7.44977C22.6215 8.50966 23.4812 9.36892 24.5416 9.36892C25.6019 9.36892 26.4616 8.50966 26.4616 7.44977C26.4616 6.38988 25.6019 5.53063 24.5416 5.53063Z" fill="url(#paint0_linear)"/>
<defs>
<linearGradient id="paint0_linear" x1="26.8449" y1="-6.22352" x2="-4.55363" y2="4.08008" gradientUnits="userSpaceOnUse">
<stop stop-color="#BA00B4"/>
<stop offset="1" stop-color="#ED1F1F"/>
</linearGradient>
</defs>
</svg>
